<svg width="151" height="46" viewBox="0 0 151 46" fill="none" xmlns="http://www.w3.org/2000/svg">
<path d="M2 36.4L4.4 35.8V10.2L2 9.6V9H13.4V9.6L11 10.2V22.76L20.8 10.8L17.8 9.6V9H25.4V9.6L22.2 10.8L15.2 19.4L26 35.8L28 36.4V37H22.4C21.2 37 20.1733 36.7067 19.32 36.12C18.4933 35.5067 17.72 34.6667 17 33.6L11 24.4V35.8L13.4 36.4V37H2V36.4ZM36.6266 37.6C34.2532 37.6 32.4266 37.0933 31.1466 36.08C29.8666 35.0667 29.2266 33.7733 29.2266 32.2C29.2266 31.16 29.4532 30.1333 29.9066 29.12C30.0932 28.64 30.3332 28.2 30.6266 27.8C31.7199 27.5333 32.9066 27.2933 34.1866 27.08C37.0666 26.6 39.6132 26.3067 41.8266 26.2V25C41.8266 22.04 41.4666 20 40.7466 18.88C40.0266 17.76 38.9199 17.2 37.4266 17.2C36.8666 17.2 36.3866 17.2667 35.9866 17.4L35.4266 17.6V23.6L34.9066 23.72C34.4799 23.7733 34.1199 23.8 33.8266 23.8C32.9199 23.8 32.1866 23.5333 31.6266 23C31.0932 22.44 30.8266 21.7067 30.8266 20.8C30.8266 19.5733 31.4399 18.5333 32.6666 17.68C33.9199 16.8267 35.7732 16.4 38.2266 16.4C40.3066 16.4 42.0932 16.7733 43.5866 17.52C45.1066 18.24 46.2532 19.2533 47.0266 20.56C47.8266 21.84 48.2266 23.32 48.2266 25V35.8L50.6266 36.4V37H47.0266C45.4266 37 44.1866 36.5067 43.3066 35.52C42.9332 35.12 42.6399 34.6133 42.4266 34C42.0532 34.6667 41.6132 35.2667 41.1066 35.8C39.9066 37 38.4132 37.6 36.6266 37.6ZM38.2266 36.2C39.2132 36.2 40.1066 35.6667 40.9066 34.6C41.1999 34.2 41.5066 33.6667 41.8266 33V27.2C40.5999 27.2 39.4266 27.2667 38.3066 27.4C37.4799 27.5067 36.9199 27.5733 36.6266 27.6C36.4932 27.8933 36.3599 28.2933 36.2266 28.8C35.9599 29.8133 35.8266 30.8133 35.8266 31.8C35.8266 33.2933 36.0532 34.4 36.5066 35.12C36.9599 35.84 37.5332 36.2 38.2266 36.2ZM53.4453 36.4L55.8453 35.8V10.2L53.4453 9.6V9H64.2453C68.2986 9 71.272 9.65333 73.1653 10.96C75.0853 12.24 76.0453 13.92 76.0453 16C76.0453 17.44 75.632 18.6 74.8053 19.48C73.9786 20.36 72.9253 21.0133 71.6453 21.44C70.2853 21.92 68.8186 22.1733 67.2453 22.2V22.4C69.192 22.48 70.8853 22.7733 72.3253 23.28C73.792 23.76 75.0053 24.5067 75.9653 25.52C76.952 26.5333 77.4453 27.8267 77.4453 29.4C77.4453 31.7733 76.472 33.64 74.5253 35C72.5786 36.3333 69.4186 37 65.0453 37H53.4453V36.4ZM64.2453 21.8C65.1253 21.8 65.9386 21.56 66.6853 21.08C67.4586 20.5733 68.072 19.88 68.5253 19C69.0053 18.0933 69.2453 17.0933 69.2453 16C69.2453 14.8267 69.0053 13.7867 68.5253 12.88C68.072 11.9733 67.4586 11.2667 66.6853 10.76C65.9386 10.2533 65.1253 10 64.2453 10H62.4453V21.8H64.2453ZM65.0453 36C66.6986 36 68.0453 35.4133 69.0853 34.24C70.1253 33.0667 70.6453 31.4533 70.6453 29.4C70.6453 27.3467 70.1253 25.7333 69.0853 24.56C68.0453 23.3867 66.6986 22.8 65.0453 22.8H62.4453V36H65.0453ZM80.2328 36.4L82.6328 35.8V10.2L80.2328 9.6V9H85.4328C87.8328 9 89.0328 10.2 89.0328 12.6V35.8L91.4328 36.4V37H80.2328V36.4ZM104.427 37.6C101.12 37.6 98.5199 36.6667 96.6266 34.8C94.7599 32.9067 93.8266 30.3067 93.8266 27C93.8266 23.6933 94.7599 21.1067 96.6266 19.24C98.5199 17.3467 101.12 16.4 104.427 16.4C107.733 16.4 110.32 17.3467 112.187 19.24C114.08 21.1067 115.027 23.6933 115.027 27C115.027 30.3067 114.08 32.9067 112.187 34.8C110.32 36.6667 107.733 37.6 104.427 37.6ZM104.427 36.8C105.493 36.8 106.387 36.0533 107.107 34.56C107.853 33.0667 108.227 30.5467 108.227 27C108.227 23.4533 107.853 20.9333 107.107 19.44C106.387 17.9467 105.493 17.2 104.427 17.2C103.36 17.2 102.453 17.9467 101.707 19.44C100.987 20.9333 100.627 23.4533 100.627 27C100.627 30.5467 100.987 33.0667 101.707 34.56C102.453 36.0533 103.36 36.8 104.427 36.8ZM127.641 45.6C125.267 45.6 123.334 45.3867 121.841 44.96C120.347 44.5333 119.267 43.9867 118.601 43.32C117.961 42.6533 117.641 41.9467 117.641 41.2C117.641 40.2933 117.907 39.56 118.441 39C119.001 38.4667 119.734 38.2 120.641 38.2C120.854 38.2 121.241 38.24 121.801 38.32L122.241 38.4V44C122.561 44.1067 123.067 44.24 123.761 44.4C124.987 44.6667 126.147 44.8 127.241 44.8C130.494 44.8 132.867 44.3333 134.361 43.4C135.881 42.4933 136.641 41.36 136.641 40C136.641 38.2667 135.041 37.4 131.841 37.4H124.241C122.241 37.4 120.707 36.9867 119.641 36.16C118.574 35.3333 118.041 34.28 118.041 33C118.041 31.72 118.667 30.5867 119.921 29.6C120.427 29.2267 121.067 28.8933 121.841 28.6C120.854 27.9867 120.134 27.2667 119.681 26.44C119.254 25.5867 119.041 24.5733 119.041 23.4C119.041 21.4267 119.787 19.84 121.281 18.64C122.774 17.4133 124.961 16.8 127.841 16.8C129.094 16.8 130.241 16.9333 131.281 17.2C132.347 17.44 133.201 17.7733 133.841 18.2C134.054 17.7467 134.334 17.3467 134.681 17C135.481 16.2 136.467 15.8 137.641 15.8C138.547 15.8 139.307 16.12 139.921 16.76C140.534 17.3733 140.841 18.1867 140.841 19.2C140.841 19.9733 140.627 20.6 140.201 21.08C139.801 21.56 139.281 21.8 138.641 21.8C138.347 21.8 138.014 21.7733 137.641 21.72L137.241 21.6V16.8C136.547 16.8 135.894 17.1333 135.281 17.8C135.041 18.04 134.827 18.3733 134.641 18.8C135.974 19.9733 136.641 21.5067 136.641 23.4C136.641 25.3733 135.894 26.9733 134.401 28.2C132.907 29.4 130.721 30 127.841 30C125.921 30 124.187 29.6667 122.641 29L121.841 29.4C121.574 29.56 121.374 29.72 121.241 29.88C121.107 30.0133 121.041 30.1867 121.041 30.4C121.041 30.8533 121.267 31.2 121.721 31.44C122.201 31.68 123.041 31.8 124.241 31.8H131.841C133.841 31.8 135.401 32.3867 136.521 33.56C137.667 34.7067 138.241 36.32 138.241 38.4C138.241 40.5333 137.347 42.2667 135.561 43.6C133.801 44.9333 131.161 45.6 127.641 45.6ZM127.841 29.2C128.721 29.2 129.401 28.7733 129.881 27.92C130.387 27.0667 130.641 25.56 130.641 23.4C130.641 21.24 130.387 19.7333 129.881 18.88C129.401 18.0267 128.721 17.6 127.841 17.6C126.961 17.6 126.267 18.0267 125.761 18.88C125.281 19.7333 125.041 21.24 125.041 23.4C125.041 25.56 125.281 27.0667 125.761 27.92C126.267 28.7733 126.961 29.2 127.841 29.2Z" fill="#E7DACA"/>
<path d="M141 0L143.701 7.29909L151 10L143.701 12.7009L141 20L138.299 12.7009L131 10L138.299 7.29909L141 0Z" fill="#B1B54F"/>
</svg>
